<?xml version="1.0" encoding="UTF-8"?>
<svg xmlns="http://www.w3.org/2000/svg" width="640" height="960" viewBox="0 0 640 960" role="img" aria-labelledby="title desc">
  <title id="title">Bước Chậm Lại Giữa Thế Gian Vội Vã - Hae Min</title>
  <desc id="desc">Bìa tóm tắt sách LemonInk cho Bước Chậm Lại Giữa Thế Gian Vội Vã</desc>
  <defs>
    <linearGradient id="bg" x1="0" y1="0" x2="1" y2="1"><stop offset="0%" stop-color="#1f3d56"/><stop offset="58%" stop-color="#1f3d56" stop-opacity="0.92"/><stop offset="100%" stop-color="#7dc7f3"/></linearGradient>
    <linearGradient id="paper" x1="0" y1="0" x2="1" y2="1"><stop offset="0%" stop-color="#fff8dc"/><stop offset="100%" stop-color="#eef9ff"/></linearGradient>
    <filter id="shadow" x="-20%" y="-20%" width="140%" height="140%"><feDropShadow dx="0" dy="18" stdDeviation="18" flood-color="#12162c" flood-opacity="0.22"/></filter>
  </defs>
  <rect width="640" height="960" rx="34" fill="url(#bg)"/>
  <circle cx="540" cy="112" r="92" fill="#ffffff" opacity="0.18"/>
  <circle cx="90" cy="812" r="122" fill="#ffffff" opacity="0.10"/>
  <rect x="64" y="74" width="512" height="812" rx="28" fill="url(#paper)" filter="url(#shadow)"/>
  <path d="M104 224 C220 278, 404 278, 536 224" fill="none" stroke="#1b1f3b" stroke-opacity="0.16" stroke-width="4"/>
  <path d="M104 248 C222 300, 400 300, 536 248" fill="none" stroke="#1b1f3b" stroke-opacity="0.12" stroke-width="4"/>
  <text x="106" y="138" font-family="Inter, Arial, sans-serif" font-size="20" font-weight="800" letter-spacing="6" fill="#20243c">TRIẾT HỌC</text>
  <rect x="96" y="282" width="448" height="205" rx="18" fill="#1b1f3b" opacity="0.08"/>
  <text font-family="Georgia, 'Times New Roman', serif" font-size="35" font-weight="700" fill="#181c34"><tspan x="112" y="328">Bước Chậm Lại</tspan><tspan x="112" y="373">Giữa Thế Gian</tspan><tspan x="112" y="418">Vội Vã</tspan></text>
  <text x="112" y="483" font-family="Inter, Arial, sans-serif" font-size="18" font-weight="650" fill="#2c3147">Hae Min</text>
  <line x1="106" y1="622" x2="534" y2="622" stroke="#1b1f3b" stroke-opacity="0.16" stroke-width="2"/>
  <text x="106" y="674" font-family="Inter, Arial, sans-serif" font-size="17" font-weight="650" fill="#35384d" opacity="0.82">Tóm tắt thông minh bởi LemonInk</text>
  <circle cx="480" cy="720" r="48" fill="#7dc7f3" opacity="0.28"/><circle cx="480" cy="720" r="28" fill="#7dc7f3" opacity="0.36"/>
  <rect x="106" y="776" width="84" height="84" rx="26" fill="#ffffff" opacity="0.42"/>
  <text x="148" y="829" text-anchor="middle" font-family="Georgia, 'Times New Roman', serif" font-size="32" font-weight="700" fill="#181c34">BC</text>
</svg>