<?xml version="1.0" encoding="UTF-8"?>
<svg xmlns="http://www.w3.org/2000/svg" width="640" height="960" viewBox="0 0 640 960" role="img" aria-labelledby="title desc">
  <title id="title">Essentialism - Greg McKeown</title>
  <desc id="desc">Bìa tóm tắt sách LemonInk cho Essentialism</desc>
  <defs>
    <linearGradient id="bg" x1="0" y1="0" x2="1" y2="1"><stop offset="0%" stop-color="#3e1d2d"/><stop offset="58%" stop-color="#3e1d2d" stop-opacity="0.92"/><stop offset="100%" stop-color="#ff7894"/></linearGradient>
    <linearGradient id="paper" x1="0" y1="0" x2="1" y2="1"><stop offset="0%" stop-color="#fff8dc"/><stop offset="100%" stop-color="#ffe9ef"/></linearGradient>
    <filter id="shadow" x="-20%" y="-20%" width="140%" height="140%"><feDropShadow dx="0" dy="18" stdDeviation="18" flood-color="#12162c" flood-opacity="0.22"/></filter>
  </defs>
  <rect width="640" height="960" rx="34" fill="url(#bg)"/>
  <circle cx="540" cy="112" r="92" fill="#ffffff" opacity="0.18"/>
  <circle cx="90" cy="812" r="122" fill="#ffffff" opacity="0.10"/>
  <rect x="64" y="74" width="512" height="812" rx="28" fill="url(#paper)" filter="url(#shadow)"/>
  <path d="M104 216 C220 270, 404 270, 536 216" fill="none" stroke="#1b1f3b" stroke-opacity="0.16" stroke-width="4"/>
  <path d="M104 240 C222 292, 400 292, 536 240" fill="none" stroke="#1b1f3b" stroke-opacity="0.12" stroke-width="4"/>
  <text x="106" y="138" font-family="Inter, Arial, sans-serif" font-size="20" font-weight="800" letter-spacing="6" fill="#20243c">TỰ LỰC</text>
  <rect x="96" y="282" width="448" height="172" rx="18" fill="#1b1f3b" opacity="0.08"/>
  <text font-family="Georgia, 'Times New Roman', serif" font-size="40" font-weight="700" fill="#181c34"><tspan x="112" y="328">Essentialism</tspan></text>
  <text x="112" y="398" font-family="Inter, Arial, sans-serif" font-size="18" font-weight="650" fill="#2c3147">Greg McKeown</text>
  <line x1="106" y1="622" x2="534" y2="622" stroke="#1b1f3b" stroke-opacity="0.16" stroke-width="2"/>
  <text x="106" y="674" font-family="Inter, Arial, sans-serif" font-size="17" font-weight="650" fill="#35384d" opacity="0.82">Tóm tắt thông minh bởi LemonInk</text>
  <circle cx="480" cy="720" r="48" fill="#ff7894" opacity="0.28"/><circle cx="480" cy="720" r="28" fill="#ff7894" opacity="0.36"/>
  <rect x="106" y="776" width="84" height="84" rx="26" fill="#ffffff" opacity="0.42"/>
  <text x="148" y="829" text-anchor="middle" font-family="Georgia, 'Times New Roman', serif" font-size="32" font-weight="700" fill="#181c34">E</text>
</svg>